<svg xmlns="http://www.w3.org/2000/svg" viewBox="0 0 180 180" fill="none" shape-rendering="auto" width="64" height="64"><desc>"Bottts" by "Pablo Stanley", licensed under "Free for personal and commercial use". / Remix of the original. - Created with dicebear.com</desc><metadata xmlns:dc="http://purl.org/dc/elements/1.1/" xmlns:cc="http://creativecommons.org/ns#" xmlns:rdf="http://www.w3.org/1999/02/22-rdf-syntax-ns#"><rdf:RDF><cc:Work><dc:title>Bottts</dc:title><dc:creator><cc:Agent rdf:about="https://twitter.com/pablostanley"><dc:title>Pablo Stanley</dc:title></cc:Agent></dc:creator><dc:source>https://bottts.com/</dc:source><cc:license rdf:resource="https://bottts.com/" /></cc:Work></rdf:RDF></metadata><mask id="viewboxMask"><rect width="180" height="180" rx="45" ry="45" x="0" y="0" fill="#fff" /></mask><g mask="url(#viewboxMask)"><rect fill="url(#backgroundLinear)" width="180" height="180" x="0" y="0" /><defs><linearGradient id="backgroundLinear" gradientTransform="rotate(357 0.5 0.5)"><stop stop-color="#6dad6d"/><stop offset="1" stop-color="#6dad6d"/></linearGradient></defs><g transform="translate(0 66)"><mask id="sidesSquare-a" style="mask-type:alpha" maskUnits="userSpaceOnUse" x="14" y="16" width="152" height="44"><path d="M14.98 20.91C14 22.84 14 25.36 14 30.4v15.2c0 5.04 0 7.56.98 9.49a9 9 0 0 0 3.93 3.93c1.93.98 4.45.98 9.49.98h7.2c5.04 0 7.56 0 9.49-.98a9 9 0 0 0 3.93-3.93c.98-1.93.98-4.45.98-9.5V30.4c0-5.04 0-7.56-.98-9.49A9 9 0 0 0 45.09 17c-1.93-.98-4.45-.98-9.5-.98h-7.2c-5.04 0-7.56 0-9.49.98A9 9 0 0 0 15 20.91ZM130.98 20.91c-.98 1.93-.98 4.45-.98 9.49v15.2c0 5.04 0 7.56.98 9.49a9 9 0 0 0 3.93 3.93c1.93.98 4.45.98 9.5.98h7.19c5.04 0 7.56 0 9.49-.98a9 9 0 0 0 3.93-3.93c.98-1.93.98-4.45.98-9.5V30.4c0-5.04 0-7.56-.98-9.49a9 9 0 0 0-3.93-3.92c-1.93-.98-4.45-.98-9.5-.98h-7.19c-5.04 0-7.56 0-9.49.98a9 9 0 0 0-3.93 3.93Z" fill="#0076DE"/></mask><g mask="url(#sidesSquare-a)"><path d="M0 0h180v76H0V0Z" fill="#7cb342"/><path d="M0 0h180v76H0V0Z" fill="#fff" fill-opacity=".3"/><path fill="#000" fill-opacity=".1" d="M0 38h180v38H0z"/></g></g><g transform="translate(41)"><mask id="topPyramid-a" style="mask-type:luminance" maskUnits="userSpaceOnUse" x="18" y="8" width="64" height="44"><path fill-rule="evenodd" clip-rule="evenodd" d="m50 8 32 44H18L50 8Z" fill="#fff"/></mask><g mask="url(#topPyramid-a)"><path d="M0 0h100v52H0V0Z" fill="#7cb342"/><path d="M0 0h100v52H0V0Z" fill="#fff" fill-opacity=".3"/><path fill="#fff" fill-opacity=".8" d="M50 4h30v48H50z"/></g></g><g transform="translate(25 44)"><mask id="faceSquare03-a" style="mask-type:luminance" maskUnits="userSpaceOnUse" x="0" y="0" width="130" height="120"><path fill-rule="evenodd" clip-rule="evenodd" d="M0 18A18 18 0 0 1 18 0h94a18 18 0 0 1 18 18v27.15a40 40 0 0 1-2.28 13.31L110.24 108a18 18 0 0 1-16.98 12H36.74a18 18 0 0 1-16.98-12L2.28 58.45A40 40 0 0 1 0 45.15V18Z" fill="#fff"/></mask><g mask="url(#faceSquare03-a)"><path d="M-2-2h134v124H-2V-2Z" fill="#7cb342"/><g transform="translate(-1 -1)"></g></g></g><g transform="translate(52 124)"><path d="M27.05 8.44a2 2 0 1 1 3.9-.88C31.72 10.96 34.4 13 38 13c3.6 0 6.28-2.04 7.05-5.44a2 2 0 1 1 3.9.88C47.75 13.7 43.43 17 38 17s-9.76-3.3-10.95-8.56Z" fill="#000" fill-opacity=".6"/></g><g transform="translate(38 76)"><path d="m18 19 12-2M20 31c0-3.31 2.9-6 7-6 3.1 0 6 2.69 6 6M86 20l-12-3M84 31c0-3.31-2.9-6-6-6-4.1 0-7 2.69-7 6" stroke="#000" stroke-width="4" stroke-linecap="round" stroke-linejoin="round"/></g></g></svg>