<?xml version="1.0" standalone="no"?>
<!DOCTYPE svg PUBLIC "-//W3C//DTD SVG 20010904//EN"
 "http://www.w3.org/TR/2001/REC-SVG-20010904/DTD/svg10.dtd">
<svg version="1.0" xmlns="http://www.w3.org/2000/svg"
 width="256.000000pt" height="256.000000pt" viewBox="0 0 256.000000 256.000000"
 preserveAspectRatio="xMidYMid meet">

<g transform="translate(0.000000,256.000000) scale(0.100000,-0.100000)"
fill="#008000" stroke="none">
<path d="M2118 2481 c-32 -26 -394 -550 -1094 -1589 l-69 -102 -195 193 c-107
106 -234 230 -281 275 -85 81 -87 82 -138 82 -47 0 -55 -4 -119 -59 -37 -32
-99 -93 -137 -136 -68 -75 -70 -80 -70 -130 0 -51 1 -53 81 -141 170 -185 779
-780 819 -798 96 -46 181 -26 248 56 32 41 286 412 932 1363 455 670 455 670
455 720 0 32 -7 51 -25 73 -24 29 -178 143 -256 190 -47 28 -117 29 -151 3z"/>
</g>
</svg>
